<?xml version="1.0" encoding="iso-8859-1"?>
<!-- Generator: Adobe Illustrator 16.0.0, SVG Export Plug-In . SVG Version: 6.00 Build 0)  -->
<!DOCTYPE svg PUBLIC "-//W3C//DTD SVG 1.1//EN" "http://www.w3.org/Graphics/SVG/1.1/DTD/svg11.dtd">
<svg xmlns="http://www.w3.org/2000/svg" xmlns:xlink="http://www.w3.org/1999/xlink" version="1.1" id="Capa_1" x="0px" y="0px" width="512px" height="512px" viewBox="0 0 896.275 896.275" style="enable-background:new 0 0 896.275 896.275;" xml:space="preserve">
<g>
	<path d="M741.371,0L589.225,184.435c-41.758-23.773-91.697-35.617-142.945-35.617c-51.609,0-100.07,12.018-142.026,36.165   L155.341,0l-0.104,463.281c-0.748,12.105,0,24.436,0,37.271c0,177.252,72.321,329.373,175.791,394.852   c-58.271-75.131-108.722-156.678-85.348-235.877c133.931-5.393,148.087-6.104,148.087-6.104l47.305,38.557l58.178-38.557   c97.408,0.695,143.383,2.713,143.383,2.713c6.035,49.635-2.592,158.486-85.869,240.139   C660.92,831.232,734.676,678.57,734.676,500.57c0-12.469-0.547-24.52-0.547-36.295L741.371,0z M380.706,522.432   c-13.982,5.6-45.296,24.051-59.844,28.521c-14.548,4.486-34.67,7.27-42.504,0c-7.834-7.271-33.009-31.322-38.035-36.904   c-5.035-5.617-8.392-50.365,21.252-48.105c30.191,2.279,111.861,35.791,116.896,37.461   C383.505,505.092,394.689,516.83,380.706,522.432z M647.971,514.049c-5.025,5.582-30.207,29.635-38.025,36.904   c-7.854,7.27-27.957,4.486-42.504,0c-14.539-4.471-45.861-22.924-59.844-28.521c-14-5.602-2.801-17.34,2.227-19.027   c5.035-1.67,86.703-35.182,116.904-37.461C656.379,463.684,653.023,508.432,647.971,514.049z" fill="#FFFFFF"/>
</g>
<g>
</g>
<g>
</g>
<g>
</g>
<g>
</g>
<g>
</g>
<g>
</g>
<g>
</g>
<g>
</g>
<g>
</g>
<g>
</g>
<g>
</g>
<g>
</g>
<g>
</g>
<g>
</g>
<g>
</g>
</svg>
