<?xml version="1.0" encoding="iso-8859-1"?>
<!-- Generator: Adobe Illustrator 16.0.0, SVG Export Plug-In . SVG Version: 6.00 Build 0)  -->
<!DOCTYPE svg PUBLIC "-//W3C//DTD SVG 1.1//EN" "http://www.w3.org/Graphics/SVG/1.1/DTD/svg11.dtd">
<svg xmlns="http://www.w3.org/2000/svg" xmlns:xlink="http://www.w3.org/1999/xlink" version="1.1" id="Capa_1" x="0px" y="0px" width="512px" height="512px" viewBox="0 0 612.021 612.02" style="enable-background:new 0 0 612.021 612.02;" xml:space="preserve">
<g>
	<path d="M156.394,299.44c11.274-3.515,21.87-8.63,31.635-15.225l1.215-0.861c1.438-1.003,2.816-2.006,4.164-3.059l1.803-1.378   c1.165-0.932,2.431-1.985,3.657-3.049l0.79-0.668l0.901-0.77c1.682-1.499,3.394-3.11,5.045-4.761l0.638-0.668   c1.337-1.367,2.684-2.786,4.001-4.244c0.456-0.527,0.851-1.003,1.267-1.479l0.395-0.476c0.993-1.135,1.924-2.259,2.826-3.404   l0.436-0.567l1.053-1.367c1.023-1.317,1.945-2.604,2.867-3.91l1.114-1.631c6.514-9.624,11.599-20.219,15.063-31.372l1.125-3.565   c2.958-10.474,4.467-21.506,4.467-32.497c0-32.182-12.531-62.44-35.302-85.181c-22.681-22.69-52.918-35.201-85.049-35.201   c-13.047,0-26.155,2.158-38.534,6.301l65.104,65.124c6.746,6.767,10.454,15.752,10.454,25.355c0,9.572-3.708,18.578-10.454,25.334   l-24.99,25c-6.726,6.716-15.711,10.443-25.264,10.443c-9.654,0.01-18.649-3.717-25.416-10.443L6.311,146.076   C2.158,158.455,0,171.572,0,184.64c0,32.152,12.47,62.379,35.201,85.08c22.771,22.741,53.039,35.282,85.201,35.292   c11.133,0,22.296-1.57,33.175-4.66L156.394,299.44z M605.709,146.076l-65.134,65.145c-6.747,6.716-15.752,10.454-25.345,10.454   s-18.578-3.738-25.345-10.454l-24.96-24.98c-6.746-6.776-10.454-15.782-10.454-25.375c0-9.583,3.708-18.588,10.444-25.334   l65.124-65.124c-12.389-4.133-25.486-6.301-38.564-6.301c-32.161,0.01-62.358,12.52-85.039,35.221   c-22.762,22.762-35.302,53.009-35.302,85.201c0,11.072,1.539,22.164,4.589,32.942l0.972,3.1   c3.525,11.305,8.682,21.992,15.337,31.736l0.445,0.648c1.257,1.813,2.371,3.302,3.495,4.781c0.354,0.456,0.719,0.973,1.104,1.449   c1.063,1.357,2.137,2.624,3.231,3.9c0.506,0.577,0.891,1.053,1.337,1.54c1.479,1.641,2.938,3.201,4.446,4.73l0.031,0.051   l0.323,0.344l0.396,0.365c1.51,1.5,3.09,2.968,4.67,4.386l0.75,0.668l0.82,0.689c1.215,1.054,2.532,2.158,3.869,3.201l0.882,0.689   l0.617,0.486c1.449,1.094,2.938,2.198,4.457,3.242l0.062,0.041l0.506,0.354l0.648,0.476c9.472,6.422,20.128,11.579,31.433,15.093   l3.454,1.064c10.475,2.968,21.536,4.507,32.618,4.507c32.172,0,62.409-12.551,85.191-35.312   c22.701-22.681,35.201-52.908,35.201-85.06C612,171.583,609.843,158.465,605.709,146.076z M477.264,471.444l-84.634-84.645   l-46.668,46.668l-23.268,23.268l91.167,91.18l69.937-69.623l-6.706-6.666L477.264,471.444z M238.88,266.417l-0.253,0.375   l-0.851,1.226c-1.074,1.499-2.239,3.069-3.403,4.599l-0.456,0.577l-0.972,1.256c-1.226,1.54-2.472,2.968-3.718,4.407l-0.284,0.324   c-0.385,0.496-0.8,0.952-1.216,1.428c-1.762,1.955-3.565,3.9-5.439,5.784l-0.881,0.841c-1.772,1.712-3.272,3.15-4.822,4.548   c-0.557,0.486-1.104,0.953-1.651,1.408l-0.8,0.668l-0.436,0.375c-1.054,0.922-2.097,1.803-3.191,2.664   c-0.861,0.699-1.651,1.327-2.462,1.925c-1.205,0.932-2.553,1.945-3.91,2.927l-2.127,1.479c-1.58,1.084-3.191,2.147-4.852,3.181   l-1.459,0.933c-2.036,1.225-4.072,2.42-6.159,3.564c-2.796,1.531-5.632,2.938-8.428,4.266l38.271,38.291l69.946-69.937   l-38.27-38.271c-2.371,5.085-5.044,10.039-8.013,14.85l-0.557,0.851c-1.145,1.864-2.35,3.657-3.576,5.44L238.88,266.417z    M430.89,315.163c-5.105-2.371-10.109-5.066-14.951-8.055c-0.436-0.283-0.72-0.465-1.023-0.678   c-1.529-0.932-3.383-2.168-5.257-3.444l-0.729-0.506l-0.689-0.506c-1.62-1.135-3.221-2.33-4.781-3.556l-0.293-0.213   c-0.527-0.405-1.044-0.81-1.53-1.215c-1.408-1.114-2.796-2.31-4.193-3.515l-0.405-0.344c-0.507-0.416-1.003-0.841-1.51-1.297   c-1.631-1.479-3.211-2.998-4.791-4.538l-0.992-0.932l-0.729-0.77c-1.783-1.803-3.231-3.374-4.66-4.933   c-0.405-0.446-0.779-0.892-1.154-1.337l-0.628-0.739c-1.206-1.378-2.32-2.705-3.374-4.032l-1.631-2.087   c-1.154-1.479-2.269-2.958-3.322-4.447l-0.861-1.246l-0.293-0.425c-1.216-1.742-2.371-3.515-3.505-5.318l-0.314-0.506l-0.021-0.041   l-0.273-0.436c-2.968-4.801-5.632-9.745-8.002-14.81l-70.858,70.848l-64.041,64.051l-97.854,97.832l69.622,69.947l98.167-97.834   l47.955-47.955L430.89,315.163z" fill="#FFFFFF"/>
</g>
<g>
</g>
<g>
</g>
<g>
</g>
<g>
</g>
<g>
</g>
<g>
</g>
<g>
</g>
<g>
</g>
<g>
</g>
<g>
</g>
<g>
</g>
<g>
</g>
<g>
</g>
<g>
</g>
<g>
</g>
</svg>
