<?xml version="1.0" encoding="iso-8859-1"?>
<!-- Generator: Adobe Illustrator 19.0.0, SVG Export Plug-In . SVG Version: 6.00 Build 0)  -->
<svg xmlns="http://www.w3.org/2000/svg" xmlns:xlink="http://www.w3.org/1999/xlink" version="1.1" id="Capa_1" x="0px" y="0px" viewBox="0 0 358.272 358.272" style="enable-background:new 0 0 358.272 358.272;" xml:space="preserve" width="512px" height="512px">
<g id="XMLID_439_">
	<path id="XMLID_440_" d="M252.674,288.272c-12.419,0-54.749,0-54.749,0c-16.568,0-30-13.432-30-30c0-16.568,13.432-30,30-30h15   c8.25,0,15-6.75,15-15c0-0.253,0-8.066,0-8.066c0-8.25-6.619-16.324-14.709-17.942l-30.583-6.05   c-8.089-1.618-21.328-1.618-29.417,0L82.634,195.33c-8.089,1.618-14.708,9.692-14.708,17.942v10.5v19.5v15   c0,55.228,44.771,100,100,100c40.354,0,75.123-23.904,90.925-58.323C260.581,296.176,262.425,288.272,252.674,288.272z" fill="#FFFFFF"/>
	<path id="XMLID_441_" d="M167.925,150c5.263,0,9.734-3.388,11.352-8.102c0.42-1.223,8.648-115.355,8.648-121.898   c0-11.045-8.954-20-20-20s-20,8.955-20,20c0,6.544,8.225,120.66,8.64,121.876C158.176,146.602,162.654,150,167.925,150z" fill="#FFFFFF"/>
	<path id="XMLID_443_" d="M77.18,161.167c-0.418-1.039-42.679-60.873-46.386-65.165c-6.257-7.244-17.202-8.043-24.445-1.787   c-7.244,6.257-8.044,17.202-1.787,24.445c3.707,4.292,56.748,54.795,57.709,55.358c3.734,2.186,8.595,1.878,12.053-1.108   C77.775,169.929,78.788,165.175,77.18,161.167z" fill="#FFFFFF"/>
	<path id="XMLID_444_" d="M350.603,157.322c-9.763-9.763-25.592-9.763-35.355,0c-5.783,5.783-58.831,73.371-59.539,74.812   c-2.753,5.602-1.799,12.563,2.86,17.223c4.651,4.651,11.598,5.608,17.195,2.873c1.451-0.71,69.055-53.769,74.838-59.552   C360.366,182.914,360.366,167.085,350.603,157.322z" fill="#FFFFFF"/>
	<path id="XMLID_445_" d="M105.63,155.365c3.064,3.942,8.405,5.695,13.389,3.976c4.975-1.716,8.098-6.376,8.09-11.36   c-0.001-1.292-26.176-102.418-28.309-108.604C95.199,28.935,83.814,23.39,73.371,26.991C62.93,30.593,57.384,41.977,60.986,52.419   C63.119,58.605,104.841,154.35,105.63,155.365z" fill="#FFFFFF"/>
	<path id="XMLID_446_" d="M216.831,159.341c4.983,1.719,10.324-0.034,13.389-3.976c0.789-1.015,42.511-96.76,44.645-102.945   c3.602-10.442-1.944-21.827-12.386-25.428c-10.442-3.601-21.827,1.944-25.429,12.386c-2.133,6.186-28.308,107.311-28.309,108.604   C208.734,152.964,211.857,157.625,216.831,159.341z" fill="#FFFFFF"/>
</g>
<g>
</g>
<g>
</g>
<g>
</g>
<g>
</g>
<g>
</g>
<g>
</g>
<g>
</g>
<g>
</g>
<g>
</g>
<g>
</g>
<g>
</g>
<g>
</g>
<g>
</g>
<g>
</g>
<g>
</g>
</svg>
