<?xml version="1.0" encoding="iso-8859-1"?>
<!-- Generator: Adobe Illustrator 16.0.0, SVG Export Plug-In . SVG Version: 6.00 Build 0)  -->
<!DOCTYPE svg PUBLIC "-//W3C//DTD SVG 1.1//EN" "http://www.w3.org/Graphics/SVG/1.1/DTD/svg11.dtd">
<svg xmlns="http://www.w3.org/2000/svg" xmlns:xlink="http://www.w3.org/1999/xlink" version="1.1" id="Capa_1" x="0px" y="0px" width="512px" height="512px" viewBox="0 0 950 950" style="enable-background:new 0 0 950 950;" xml:space="preserve">
<g>
	<g>
		<g>
			<path d="M0,517.352c0,13.211,8.243,25.019,20.644,29.57l56.499,20.742c4.25-10.152,10.483-19.666,18.735-27.918     c16.486-16.486,38.406-25.566,61.722-25.566c23.315,0,45.235,9.08,61.722,25.566l172.915,172.914     c24.33,24.33,31.256,59.563,20.8,90.115c25.141,18.411,58.865,21.584,87.34,7.268L738.185,690.48     c38.854-19.532,54.917-64.051,41.763-102.336c-0.108,0-0.219,0.004-0.325,0.004c-31.656,0-61.48-13.911-81.826-38.168     L534.089,354.8l-23.117,23.117c-16.206,16.204-37.751,25.131-60.67,25.131c-22.918,0-44.465-8.925-60.67-25.131l-7.884-7.885     c-16.206-16.206-25.13-37.752-25.13-60.671c0-22.918,8.925-44.464,25.13-60.67l65.64-65.64l-13.702-16.334     c-25.049-30.156-67.626-38.977-102.594-21.253l-178.495,90.47L43.26,191.946c-20.7-8.328-43.258,6.911-43.258,29.224v296.182H0z" fill="#FFFFFF"/>
			<path d="M950,504.524v-242.43c0-17.397-14.104-31.5-31.5-31.5H779L635.51,127.021c-14.771-10.662-31.996-15.891-49.138-15.891     c-21.646,0-43.158,8.339-59.424,24.604l-64.854,64.853l-64.227,64.227c-24.604,24.603-24.604,64.493,0,89.096l7.884,7.885     c12.301,12.302,28.425,18.452,44.548,18.452c16.124,0,32.247-6.15,44.548-18.452l40.716-40.715l179.699,214.248     c13.398,15.975,31.974,26.096,51.916,29.086c4.103,0.615,8.26,0.936,12.441,0.936c6.003,0,12.06-0.646,18.064-1.969     l127.589-28.094C939.714,532.108,950,519.313,950,504.524z" fill="#FFFFFF"/>
			<path d="M284.914,819.983c12.592,12.593,29.096,18.888,45.6,18.888c16.504,0,33.009-6.295,45.601-18.888     c9.826-9.825,15.799-22.036,17.958-34.768c3.374-19.898-2.601-41.074-17.958-56.434L203.2,555.868     c-12.592-12.592-29.096-18.888-45.6-18.888s-33.008,6.296-45.6,18.888l0,0c-5.84,5.842-10.308,12.528-13.439,19.66     c-10.372,23.627-5.904,52.196,13.439,71.539L284.914,819.983z" fill="#FFFFFF"/>
		</g>
	</g>
</g>
<g>
</g>
<g>
</g>
<g>
</g>
<g>
</g>
<g>
</g>
<g>
</g>
<g>
</g>
<g>
</g>
<g>
</g>
<g>
</g>
<g>
</g>
<g>
</g>
<g>
</g>
<g>
</g>
<g>
</g>
</svg>
